<svg width="16" height="16" viewBox="0 0 16 16" fill="none" xmlns="http://www.w3.org/2000/svg">
<path d="M9.61909 7.09861H8.8183V6.19191C8.8183 5.95144 8.73393 5.72082 8.58375 5.55078C8.43357 5.38074 8.22989 5.28521 8.01751 5.28521C7.80512 5.28521 7.60144 5.38074 7.45126 5.55078C7.30109 5.72082 7.21672 5.95144 7.21672 6.19191V7.09861H6.41593C6.20354 7.09861 5.99986 7.19414 5.84968 7.36418C5.6995 7.53422 5.61514 7.76484 5.61514 8.00531C5.61514 8.24578 5.6995 8.4764 5.84968 8.64644C5.99986 8.81648 6.20354 8.91201 6.41593 8.91201H7.21672V9.81871C7.21672 10.0592 7.30109 10.2898 7.45126 10.4598C7.60144 10.6299 7.80512 10.7254 8.01751 10.7254C8.22989 10.7254 8.43357 10.6299 8.58375 10.4598C8.73393 10.2898 8.8183 10.0592 8.8183 9.81871V8.91201H9.61909C9.83147 8.91201 10.0352 8.81648 10.1853 8.64644C10.3355 8.4764 10.4199 8.24578 10.4199 8.00531C10.4199 7.76484 10.3355 7.53422 10.1853 7.36418C10.0352 7.19414 9.83147 7.09861 9.61909 7.09861ZM14.552 1.65842C13.6981 0.701581 12.5703 0.121808 11.372 0.0237134C10.1738 -0.0743814 8.98407 0.315662 8.01751 1.12346C6.99863 0.265399 5.73044 -0.123689 4.46834 0.0345534C3.20624 0.192796 2.04396 0.886615 1.21557 1.97629C0.387183 3.06597 -0.0457919 4.47056 0.00384011 5.90722C0.0534721 7.34388 0.582024 8.70589 1.48306 9.71897L6.2878 15.2045C6.73825 15.7139 7.34885 16 7.98548 16C8.62211 16 9.23271 15.7139 9.68315 15.2045L14.4879 9.71897C14.9611 9.19549 15.3383 8.57127 15.5977 7.88221C15.8572 7.19315 15.9938 6.45282 15.9998 5.70377C16.0058 4.95473 15.8809 4.21173 15.6324 3.51749C15.384 2.82326 15.0168 2.19146 14.552 1.65842ZM13.4228 8.42239L8.6181 13.8626C8.54366 13.9476 8.45509 14.015 8.3575 14.0611C8.25992 14.1071 8.15525 14.1308 8.04954 14.1308C7.94382 14.1308 7.83916 14.1071 7.74157 14.0611C7.64399 14.015 7.55542 13.9476 7.48098 13.8626L2.67624 8.42239C2.04822 7.69553 1.69656 6.71913 1.69656 5.70229C1.69656 4.68546 2.04822 3.70906 2.67624 2.9822C3.31619 2.2668 4.1793 1.86566 5.07861 1.86566C5.97792 1.86566 6.84102 2.2668 7.48098 2.9822C7.55542 3.06718 7.64399 3.13463 7.74157 3.18067C7.83916 3.2267 7.94382 3.2504 8.04954 3.2504C8.15525 3.2504 8.25992 3.2267 8.3575 3.18067C8.45509 3.13463 8.54366 3.06718 8.6181 2.9822C9.25806 2.2668 10.1212 1.86566 11.0205 1.86566C11.9198 1.86566 12.7829 2.2668 13.4228 2.9822C14.0557 3.70986 14.4104 4.69013 14.4104 5.71136C14.4104 6.73259 14.0557 7.71286 13.4228 8.44053V8.42239Z" fill="#E3E7D4"/>
</svg>
