<svg width="56" height="56" viewBox="0 0 56 56" fill="none" xmlns="http://www.w3.org/2000/svg">
<path d="M23.1 30.8C23.1 31.2596 23.0095 31.7148 22.8336 32.1394C22.6577 32.564 22.3999 32.9499 22.0749 33.2749C21.7499 33.5999 21.364 33.8577 20.9394 34.0336C20.5148 34.2095 20.0596 34.3 19.6 34.3C18.6717 34.3 17.7815 33.9313 17.1251 33.2749C16.4687 32.6185 16.1 31.7283 16.1 30.8C16.1 29.8717 16.4687 28.9815 17.1251 28.3251C17.7815 27.6687 18.6717 27.3 19.6 27.3C20.0596 27.3 20.5148 27.3905 20.9394 27.5664C21.364 27.7423 21.7499 28.0001 22.0749 28.3251C22.3999 28.6501 22.6577 29.036 22.8336 29.4606C23.0095 29.8852 23.1 30.3404 23.1 30.8ZM36.4 27.3C35.4717 27.3 34.5815 27.6687 33.9251 28.3251C33.2687 28.9815 32.9 29.8717 32.9 30.8C32.9 31.7283 33.2687 32.6185 33.9251 33.2749C34.5815 33.9313 35.4717 34.3 36.4 34.3C37.3283 34.3 38.2185 33.9313 38.8749 33.2749C39.5312 32.6185 39.9 31.7283 39.9 30.8C39.9 29.8717 39.5312 28.9815 38.8749 28.3251C38.2185 27.6687 37.3283 27.3 36.4 27.3ZM56 28C56 35.4261 53.05 42.548 47.799 47.799C42.548 53.05 35.4261 56 28 56C24.323 56 20.682 55.2758 17.2849 53.8686C13.8877 52.4615 10.8011 50.399 8.20101 47.799C2.94999 42.548 0 35.4261 0 28C0 20.5739 2.94999 13.452 8.20101 8.20101C13.452 2.94999 20.5739 0 28 0C31.677 0 35.318 0.724242 38.7151 2.13137C42.1123 3.5385 45.1989 5.60097 47.799 8.20101C50.399 10.8011 52.4615 13.8877 53.8686 17.2849C55.2758 20.682 56 24.323 56 28ZM24.248 5.936C28.168 12.432 35.28 16.8 43.4 16.8C44.688 16.8 45.948 16.66 47.152 16.464C43.232 9.968 36.12 5.6 28 5.6C26.712 5.6 25.452 5.74 24.248 5.936ZM6.776 20.916C11.6077 18.1769 15.2572 13.7496 17.024 8.484C12.1923 11.2231 8.54278 15.6504 6.776 20.916ZM50.4 28C50.4 25.816 50.064 23.716 49.476 21.728C47.516 22.148 45.5 22.4 43.4 22.4C39.2381 22.4009 35.1283 21.474 31.3697 19.6867C27.6111 17.8994 24.2982 15.2967 21.672 12.068C20.2018 15.6219 18.0163 18.8354 15.2514 21.5087C12.4865 24.1821 9.20132 26.2582 5.6 27.608V28C5.6 40.348 15.652 50.4 28 50.4C40.348 50.4 50.4 40.348 50.4 28Z" fill="#7A854D"/>
</svg>
